<svg width="124" height="24" viewBox="0 0 124 24" fill="none" xmlns="http://www.w3.org/2000/svg">
<path d="M41.2306 15.7689C42.1734 16.7405 43.3983 17.2263 45.1782 17.2263C48.9408 17.2263 52.7299 13.9757 52.7299 8.04876C52.7299 2.76659 49.214 0.205001 46.0506 0.205001C43.0105 0.205001 41.821 1.94511 41.2218 2.80192V1.44163C41.2218 1.11481 40.9398 0.531824 40.3053 0.531824C38.6311 0.531824 36.3841 0.531824 36.3841 0.531824V22.4378C36.3841 23.0473 36.8864 23.3564 37.2917 23.3564H41.2129V15.7689H41.2306ZM41.2306 6.8298C41.5126 6.00832 42.5171 4.16221 44.676 4.16221C46.0242 4.16221 47.8658 4.68336 47.8658 8.17242C47.8658 12.006 45.6364 13.4458 43.786 13.4458C42.3849 13.4458 41.5478 12.8539 41.2306 12.5625V6.8298Z" fill="#8FC641"/>
<path d="M63.0398 4.16231C60.7311 4.16231 59.4798 5.90242 59.4798 8.8085C59.4798 11.7146 60.7047 13.4547 63.0398 13.4547C65.3749 13.4547 66.5997 11.7587 66.5997 8.8085C66.5997 5.85826 65.3484 4.16231 63.0398 4.16231ZM71.4462 8.69367C71.4462 13.7285 68.1594 17.2176 63.075 17.2176C57.9907 17.2176 54.7039 13.6578 54.7039 8.69367C54.7039 3.72949 57.973 0.169766 63.075 0.169766C68.177 0.169766 71.4462 3.65882 71.4462 8.69367Z" fill="#8FC641"/>
<path d="M81.7999 4.14464C79.4913 4.14464 78.24 5.88476 78.24 8.79083C78.24 11.6969 79.4648 13.437 81.7999 13.437C84.135 13.437 85.3599 11.7411 85.3599 8.79083C85.3687 5.84059 84.1174 4.14464 81.7999 4.14464ZM90.2151 8.676C90.2151 13.7108 86.9284 17.1999 81.844 17.1999C76.7596 17.1999 73.4729 13.6402 73.4729 8.676C73.4729 3.71182 76.742 0.1521 81.844 0.1521C86.946 0.1521 90.2151 3.64116 90.2151 8.676Z" fill="#8FC641"/>
<path d="M8.81244 17.1822C14.6899 17.1822 16.8664 12.5449 14.6194 12.3594C14.0114 12.3064 13.4826 13.3664 10.2047 13.3664C6.76812 13.3664 5.35824 11.6262 5.14676 10.2925H14.2757C15.4565 10.2925 16.0997 9.24132 16.2672 8.57884C16.9897 5.69043 15.4741 0.160933 8.81244 0.160933C2.468 0.160933 0.221008 5.21344 0.221008 8.85266C0.221008 12.5272 2.77641 17.1822 8.81244 17.1822ZM8.9358 4.01215C12.3724 4.01215 12.3195 7.20971 11.8437 7.20971H5.12914C5.12914 6.22924 6.42446 4.01215 8.9358 4.01215Z" fill="#8FC641"/>
<path d="M19.2281 11.6084V0.531787H27.1322C30.4278 0.531787 33.0713 2.21007 33.0713 5.10731C33.0713 6.99759 31.9346 7.91622 31.212 8.27838C32.0227 8.56104 33.8291 9.54151 33.8291 11.9706C33.8291 15.1152 31.168 16.8199 27.6256 16.8199H24.0921C21.431 16.8199 19.2281 15.8395 19.2281 11.6084ZM29.0884 11.9088C29.0884 10.9636 28.498 10.2923 27.467 10.2923H24.0657V11.8646C24.0657 12.5624 24.568 13.4016 25.5461 13.4016H27.5992C28.2777 13.4104 29.0884 12.8097 29.0884 11.9088ZM28.5332 5.62846C28.5421 5.12498 28.1632 4.11801 26.859 4.13568H24.0657V7.20958H26.859C27.8107 7.20958 28.5332 6.6266 28.5332 5.62846Z" fill="#8FC641"/>
<path d="M113.945 15.9809V4.13576H109.83C109.319 4.13576 108.923 3.72943 108.923 3.27895V0.549533H122.889C123.242 0.549533 123.797 0.814524 123.797 1.45934V4.12692H118.774V16.8289H114.853C114.245 16.8377 113.945 16.3077 113.945 15.9809Z" fill="#8FC641"/>
<path d="M92.577 15.9544V0.549533H102.217C104.878 0.549533 107.081 1.53 107.081 5.76104V16.8377H103.142C102.746 16.8377 102.243 16.5285 102.243 15.9456V5.67271C102.235 4.95723 101.688 4.13576 100.701 4.13576H97.3882V16.8377H93.5022C92.8589 16.8377 92.577 16.2812 92.577 15.9544Z" fill="#8FC641"/>
</svg>
